<?xml version="1.0" encoding="utf-8"?>
<!-- Generator: Adobe Illustrator 24.3.0, SVG Export Plug-In . SVG Version: 6.00 Build 0)  -->
<svg version="1.1" id="Layer_1" xmlns="http://www.w3.org/2000/svg" xmlns:xlink="http://www.w3.org/1999/xlink" x="0px" y="0px"
	 viewBox="0 0 545 621" style="enable-background:new 0 0 545 621;" xml:space="preserve">
<style type="text/css">
	.st0{fill:#B5ACE8;}
	.st1{fill:#4444E0;}
	.st2{fill:#2A1E70;}
	.st3{fill:#FFFFFF;}
	.st4{fill:#5033C1;}
	.st5{font-family:'Poppins-Bold';}
	.st6{font-size:19.0882px;}
	.st7{opacity:0.35;fill:#FFFFFF;}
</style>
<g>
	<g>
		<g>
			<path class="st0" d="M495.9,457.3H49.1v-103c0-32.6,26.5-59.1,59.1-59.1h328.6c32.6,0,59.1,26.5,59.1,59.1V457.3z"/>
			<g>
				<path class="st1" d="M385,583.4H160c-22.4,0-40.6-18.2-40.6-40.6V78.2c0-22.4,18.2-40.6,40.6-40.6H385
					c22.4,0,40.6,18.2,40.6,40.6v464.6C425.6,565.2,407.4,583.4,385,583.4z"/>
				<circle class="st2" cx="423.5" cy="148.8" r="37.5"/>
			</g>
		</g>
		<g>
			<g>
				<g>
					<g>
						<g>
							<path class="st3" d="M205.5,173.2v2.1H202v11.1h-2.7v-11.1h-3.5v-2.1H205.5z"/>
							<path class="st3" d="M210.6,176.3c0.6-0.3,1.2-0.5,1.9-0.5v2.8h-0.7c-0.8,0-1.5,0.2-1.9,0.6c-0.4,0.4-0.6,1.1-0.6,2v5.2h-2.7
								V176h2.7v1.6C209.6,177,210,176.6,210.6,176.3z"/>
							<path class="st3" d="M214.6,178.4c0.4-0.8,1-1.5,1.7-1.9c0.7-0.4,1.5-0.7,2.4-0.7c0.8,0,1.5,0.2,2.1,0.5
								c0.6,0.3,1.1,0.7,1.4,1.2V176h2.7v10.5h-2.7v-1.5c-0.3,0.5-0.8,0.9-1.4,1.2c-0.6,0.3-1.3,0.5-2.1,0.5c-0.9,0-1.7-0.2-2.4-0.7
								c-0.7-0.5-1.3-1.1-1.7-1.9c-0.4-0.8-0.6-1.8-0.6-2.9C213.9,180.1,214.2,179.2,214.6,178.4z M221.8,179.6
								c-0.3-0.5-0.6-0.8-1-1.1c-0.4-0.2-0.9-0.4-1.4-0.4c-0.5,0-0.9,0.1-1.4,0.4c-0.4,0.2-0.8,0.6-1,1.1c-0.3,0.5-0.4,1-0.4,1.6
								c0,0.6,0.1,1.2,0.4,1.7c0.3,0.5,0.6,0.8,1,1.1c0.4,0.3,0.9,0.4,1.4,0.4c0.5,0,1-0.1,1.4-0.4c0.4-0.2,0.8-0.6,1-1.1
								c0.3-0.5,0.4-1,0.4-1.7C222.2,180.6,222.1,180,221.8,179.6z"/>
							<path class="st3" d="M227.8,178.4c0.4-0.8,1-1.5,1.7-1.9c0.7-0.4,1.5-0.7,2.4-0.7c0.7,0,1.3,0.1,2,0.4
								c0.6,0.3,1.1,0.7,1.5,1.2v-5h2.7v14h-2.7v-1.6c-0.3,0.5-0.8,0.9-1.4,1.3c-0.6,0.3-1.3,0.5-2.1,0.5c-0.9,0-1.7-0.2-2.4-0.7
								c-0.7-0.5-1.3-1.1-1.7-1.9c-0.4-0.8-0.6-1.8-0.6-2.9C227.2,180.1,227.4,179.2,227.8,178.4z M235.1,179.6
								c-0.3-0.5-0.6-0.8-1-1.1c-0.4-0.2-0.9-0.4-1.4-0.4s-0.9,0.1-1.4,0.4c-0.4,0.2-0.8,0.6-1,1.1c-0.3,0.5-0.4,1-0.4,1.6
								c0,0.6,0.1,1.2,0.4,1.7c0.3,0.5,0.6,0.8,1,1.1c0.4,0.3,0.9,0.4,1.4,0.4c0.5,0,1-0.1,1.4-0.4c0.4-0.2,0.8-0.6,1-1.1
								c0.3-0.5,0.4-1,0.4-1.7C235.5,180.6,235.3,180,235.1,179.6z"/>
							<path class="st3" d="M250.8,182h-7.7c0.1,0.8,0.3,1.4,0.8,1.8c0.5,0.4,1,0.6,1.7,0.6c1,0,1.7-0.4,2.1-1.3h2.9
								c-0.3,1-0.9,1.8-1.7,2.5c-0.9,0.7-1.9,1-3.2,1c-1,0-1.9-0.2-2.7-0.7c-0.8-0.4-1.4-1.1-1.9-1.9c-0.4-0.8-0.7-1.8-0.7-2.8
								c0-1.1,0.2-2,0.7-2.9c0.4-0.8,1.1-1.5,1.9-1.9c0.8-0.4,1.7-0.7,2.8-0.7c1,0,1.9,0.2,2.7,0.6c0.8,0.4,1.4,1,1.8,1.8
								c0.4,0.8,0.7,1.7,0.7,2.7C250.9,181.4,250.9,181.7,250.8,182z M248.1,180.2c0-0.7-0.3-1.2-0.7-1.6c-0.5-0.4-1.1-0.6-1.8-0.6
								c-0.7,0-1.2,0.2-1.7,0.6c-0.4,0.4-0.7,1-0.8,1.7H248.1z"/>
							<path class="st3" d="M269.4,177c0.8,0.8,1.2,1.9,1.2,3.3v6.2h-2.7v-5.8c0-0.8-0.2-1.5-0.6-1.9c-0.4-0.4-1-0.7-1.7-0.7
								c-0.7,0-1.3,0.2-1.7,0.7c-0.4,0.4-0.6,1.1-0.6,1.9v5.8h-2.7v-5.8c0-0.8-0.2-1.5-0.6-1.9s-1-0.7-1.7-0.7
								c-0.7,0-1.3,0.2-1.7,0.7c-0.4,0.4-0.6,1.1-0.6,1.9v5.8h-2.7V176h2.7v1.3c0.3-0.4,0.8-0.8,1.3-1c0.5-0.3,1.1-0.4,1.8-0.4
								c0.8,0,1.6,0.2,2.2,0.5c0.6,0.3,1.1,0.8,1.5,1.5c0.3-0.6,0.8-1.1,1.5-1.5c0.7-0.4,1.4-0.6,2.1-0.6
								C267.5,175.8,268.6,176.2,269.4,177z"/>
							<path class="st3" d="M273.4,178.4c0.4-0.8,1-1.5,1.7-1.9c0.7-0.4,1.5-0.7,2.4-0.7c0.8,0,1.5,0.2,2.1,0.5
								c0.6,0.3,1.1,0.7,1.4,1.2V176h2.7v10.5H281v-1.5c-0.3,0.5-0.8,0.9-1.4,1.2c-0.6,0.3-1.3,0.5-2.1,0.5c-0.9,0-1.7-0.2-2.4-0.7
								c-0.7-0.5-1.3-1.1-1.7-1.9c-0.4-0.8-0.6-1.8-0.6-2.9C272.8,180.1,273,179.2,273.4,178.4z M280.7,179.6
								c-0.3-0.5-0.6-0.8-1-1.1c-0.4-0.2-0.9-0.4-1.4-0.4s-0.9,0.1-1.4,0.4c-0.4,0.2-0.8,0.6-1,1.1c-0.3,0.5-0.4,1-0.4,1.6
								c0,0.6,0.1,1.2,0.4,1.7c0.3,0.5,0.6,0.8,1,1.1c0.4,0.3,0.9,0.4,1.4,0.4c0.5,0,1-0.1,1.4-0.4c0.4-0.2,0.8-0.6,1-1.1
								c0.3-0.5,0.4-1,0.4-1.7C281,180.6,280.9,180,280.7,179.6z"/>
							<path class="st3" d="M289.8,178.1v5.1c0,0.4,0.1,0.6,0.3,0.8c0.2,0.2,0.5,0.2,0.9,0.2h1.2v2.2h-1.7c-2.2,0-3.4-1.1-3.4-3.3
								v-5.1h-1.3V176h1.3v-2.6h2.7v2.6h2.4v2.2H289.8z"/>
							<path class="st3" d="M304.1,182h-7.7c0.1,0.8,0.3,1.4,0.8,1.8c0.5,0.4,1,0.6,1.7,0.6c1,0,1.7-0.4,2.1-1.3h2.9
								c-0.3,1-0.9,1.8-1.7,2.5c-0.9,0.7-1.9,1-3.2,1c-1,0-1.9-0.2-2.7-0.7c-0.8-0.4-1.4-1.1-1.9-1.9c-0.4-0.8-0.7-1.8-0.7-2.8
								c0-1.1,0.2-2,0.7-2.9c0.4-0.8,1.1-1.5,1.9-1.9c0.8-0.4,1.7-0.7,2.8-0.7c1,0,1.9,0.2,2.7,0.6c0.8,0.4,1.4,1,1.8,1.8
								c0.4,0.8,0.7,1.7,0.7,2.7C304.2,181.4,304.2,181.7,304.1,182z M301.4,180.2c0-0.7-0.3-1.2-0.7-1.6c-0.5-0.4-1.1-0.6-1.8-0.6
								c-0.7,0-1.2,0.2-1.7,0.6c-0.4,0.4-0.7,1-0.8,1.7H301.4z"/>
						</g>
					</g>
					<g>
						<path class="st3" d="M171.6,169.7c-0.6-0.6-1.7-0.6-2.3,0c-0.6,0.6-0.6,1.7,0,2.3l15.6,15.6c0.3,0.3,0.7,0.5,1.2,0.5
							c0.4,0,0.9-0.2,1.2-0.5c0.6-0.6,0.6-1.7,0-2.3L171.6,169.7z"/>
						<path class="st3" d="M188.2,177l-8.4-8.4c-0.6-0.6-1.7-0.6-2.3,0c-0.6,0.6-0.6,1.7,0,2.3l8.4,8.4c0.3,0.3,0.7,0.5,1.2,0.5
							c0.4,0,0.9-0.2,1.2-0.5C188.9,178.7,188.9,177.7,188.2,177z"/>
						<path class="st3" d="M170.7,177.9c-0.6-0.6-1.7-0.6-2.3,0c-0.6,0.6-0.6,1.7,0,2.3l8.4,8.4c0.3,0.3,0.7,0.5,1.2,0.5
							c0.4,0,0.9-0.2,1.2-0.5c0.6-0.6,0.6-1.7,0-2.3L170.7,177.9z"/>
					</g>
				</g>
			</g>
		</g>
		<path class="st3" d="M336,503.3H192.2c-13.6,0-24.6-11-24.6-24.6v-4.3c0-13.6,11-24.6,24.6-24.6H336c13.6,0,24.6,11,24.6,24.6v4.3
			C360.6,492.3,349.6,503.3,336,503.3z"/>
		<text transform="matrix(1 0 0 1 227.635 484.5322)" class="st4 st5 st6">Onboarding</text>
		<path class="st4" d="M203.8,461.3c-8.5,0-15.3,6.9-15.3,15.3c0,8.5,6.9,15.3,15.3,15.3c8.5,0,15.3-6.9,15.3-15.3
			C219.2,468.2,212.3,461.3,203.8,461.3z M208.4,478.3l-6,3.7c-0.9,0.6-2.2-0.1-2.2-1.2v-7.4c0-1.1,1.2-1.8,2.2-1.2l6,3.7
			C209.2,476.5,209.2,477.8,208.4,478.3z"/>
	</g>
	<path class="st7" d="M372.4,250.5h-196c-4.7,0-8.5-3.8-8.5-8.5v0c0-4.7,3.8-8.5,8.5-8.5h196c4.7,0,8.5,3.8,8.5,8.5v0
		C380.9,246.7,377.1,250.5,372.4,250.5z"/>
	<path class="st7" d="M372.4,288.5h-196c-4.7,0-8.5-3.8-8.5-8.5l0,0c0-4.7,3.8-8.5,8.5-8.5h196c4.7,0,8.5,3.8,8.5,8.5l0,0
		C380.9,284.7,377.1,288.5,372.4,288.5z"/>
	<path class="st7" d="M372.4,326.5h-196c-4.7,0-8.5-3.8-8.5-8.5l0,0c0-4.7,3.8-8.5,8.5-8.5h196c4.7,0,8.5,3.8,8.5,8.5l0,0
		C380.9,322.7,377.1,326.5,372.4,326.5z"/>
	<path class="st7" d="M372.4,364.5h-196c-4.7,0-8.5-3.8-8.5-8.5l0,0c0-4.7,3.8-8.5,8.5-8.5h196c4.7,0,8.5,3.8,8.5,8.5l0,0
		C380.9,360.7,377.1,364.5,372.4,364.5z"/>
	<path class="st7" d="M372.4,402.5h-196c-4.7,0-8.5-3.8-8.5-8.5l0,0c0-4.7,3.8-8.5,8.5-8.5h196c4.7,0,8.5,3.8,8.5,8.5l0,0
		C380.9,398.7,377.1,402.5,372.4,402.5z"/>
</g>
</svg>
