<?xml version="1.0" encoding="utf-8"?>
<!-- Generator: Adobe Illustrator 24.3.0, SVG Export Plug-In . SVG Version: 6.00 Build 0)  -->
<svg version="1.1" id="Layer_1" xmlns="http://www.w3.org/2000/svg" xmlns:xlink="http://www.w3.org/1999/xlink" x="0px" y="0px"
	 viewBox="0 0 545 621" style="enable-background:new 0 0 545 621;" xml:space="preserve">
<style type="text/css">
	.st0{fill:#B5ACE8;}
	.st1{fill:#3730A3;}
	.st2{fill:#2A1E70;}
	.st3{fill:#FFFFFF;}
	.st4{fill:#5033C1;}
	.st5{font-family:'Poppins-Bold';}
	.st6{font-size:19.0882px;}
	.st7{opacity:0.35;fill:#FFFFFF;}
</style>
<g>
	<g>
		<g>
			<path class="st0" d="M472.8,451.1H26v-103c0-32.6,26.5-59.1,59.1-59.1h328.6c32.6,0,59.1,26.5,59.1,59.1V451.1z"/>
			<g>
				<path class="st1" d="M361.9,577.2H136.9c-22.4,0-40.6-18.2-40.6-40.6V72c0-22.4,18.2-40.6,40.6-40.6h225.1
					c22.4,0,40.6,18.2,40.6,40.6v464.6C402.5,559,384.3,577.2,361.9,577.2z"/>
				<circle class="st2" cx="400.4" cy="142.6" r="37.5"/>
			</g>
		</g>
		<g>
			<g>
				<g>
					<g>
						<g>
							<path class="st3" d="M182.4,167v2.1h-3.5v11.1h-2.7v-11.1h-3.5V167H182.4z"/>
							<path class="st3" d="M187.5,170.1c0.6-0.3,1.2-0.5,1.9-0.5v2.8h-0.7c-0.8,0-1.5,0.2-1.9,0.6c-0.4,0.4-0.6,1.1-0.6,2v5.2h-2.7
								v-10.5h2.7v1.6C186.5,170.8,186.9,170.4,187.5,170.1z"/>
							<path class="st3" d="M191.5,172.2c0.4-0.8,1-1.5,1.7-1.9c0.7-0.4,1.5-0.7,2.4-0.7c0.8,0,1.5,0.2,2.1,0.5
								c0.6,0.3,1.1,0.7,1.4,1.2v-1.5h2.7v10.5h-2.7v-1.5c-0.3,0.5-0.8,0.9-1.4,1.2c-0.6,0.3-1.3,0.5-2.1,0.5
								c-0.9,0-1.7-0.2-2.4-0.7c-0.7-0.5-1.3-1.1-1.7-1.9c-0.4-0.8-0.6-1.8-0.6-2.9C190.8,173.9,191,173,191.5,172.2z M198.7,173.4
								c-0.3-0.5-0.6-0.8-1-1.1c-0.4-0.2-0.9-0.4-1.4-0.4s-0.9,0.1-1.4,0.4c-0.4,0.2-0.8,0.6-1,1.1c-0.3,0.5-0.4,1-0.4,1.6
								c0,0.6,0.1,1.2,0.4,1.7c0.3,0.5,0.6,0.8,1,1.1c0.4,0.3,0.9,0.4,1.4,0.4c0.5,0,1-0.1,1.4-0.4c0.4-0.2,0.8-0.6,1-1.1
								c0.3-0.5,0.4-1,0.4-1.7C199.1,174.4,199,173.8,198.7,173.4z"/>
							<path class="st3" d="M204.7,172.2c0.4-0.8,1-1.5,1.7-1.9c0.7-0.4,1.5-0.7,2.4-0.7c0.7,0,1.3,0.1,2,0.4
								c0.6,0.3,1.1,0.7,1.5,1.2v-5h2.7v14h-2.7v-1.6c-0.3,0.5-0.8,0.9-1.4,1.3c-0.6,0.3-1.3,0.5-2.1,0.5c-0.9,0-1.7-0.2-2.4-0.7
								c-0.7-0.5-1.3-1.1-1.7-1.9c-0.4-0.8-0.6-1.8-0.6-2.9C204.1,173.9,204.3,173,204.7,172.2z M212,173.4c-0.3-0.5-0.6-0.8-1-1.1
								c-0.4-0.2-0.9-0.4-1.4-0.4c-0.5,0-0.9,0.1-1.4,0.4c-0.4,0.2-0.8,0.6-1,1.1c-0.3,0.5-0.4,1-0.4,1.6c0,0.6,0.1,1.2,0.4,1.7
								c0.3,0.5,0.6,0.8,1,1.1c0.4,0.3,0.9,0.4,1.4,0.4c0.5,0,1-0.1,1.4-0.4c0.4-0.2,0.8-0.6,1-1.1c0.3-0.5,0.4-1,0.4-1.7
								C212.3,174.4,212.2,173.8,212,173.4z"/>
							<path class="st3" d="M227.7,175.8H220c0.1,0.8,0.3,1.4,0.8,1.8c0.5,0.4,1,0.6,1.7,0.6c1,0,1.7-0.4,2.1-1.3h2.9
								c-0.3,1-0.9,1.8-1.7,2.5c-0.9,0.7-1.9,1-3.2,1c-1,0-1.9-0.2-2.7-0.7c-0.8-0.4-1.4-1.1-1.9-1.9c-0.4-0.8-0.7-1.8-0.7-2.8
								c0-1.1,0.2-2,0.7-2.9c0.4-0.8,1.1-1.5,1.9-1.9c0.8-0.4,1.7-0.7,2.8-0.7c1,0,1.9,0.2,2.7,0.6c0.8,0.4,1.4,1,1.8,1.8
								c0.4,0.8,0.7,1.7,0.7,2.7C227.8,175.2,227.7,175.5,227.7,175.8z M225,174c0-0.7-0.3-1.2-0.7-1.6c-0.5-0.4-1.1-0.6-1.8-0.6
								c-0.7,0-1.2,0.2-1.7,0.6c-0.4,0.4-0.7,1-0.8,1.7H225z"/>
							<path class="st3" d="M246.2,170.8c0.8,0.8,1.2,1.9,1.2,3.3v6.2h-2.7v-5.8c0-0.8-0.2-1.5-0.6-1.9c-0.4-0.4-1-0.7-1.7-0.7
								c-0.7,0-1.3,0.2-1.7,0.7c-0.4,0.4-0.6,1.1-0.6,1.9v5.8h-2.7v-5.8c0-0.8-0.2-1.5-0.6-1.9c-0.4-0.4-1-0.7-1.7-0.7
								c-0.7,0-1.3,0.2-1.7,0.7c-0.4,0.4-0.6,1.1-0.6,1.9v5.8h-2.7v-10.5h2.7v1.3c0.3-0.4,0.8-0.8,1.3-1c0.5-0.3,1.1-0.4,1.8-0.4
								c0.8,0,1.6,0.2,2.2,0.5c0.6,0.3,1.1,0.8,1.5,1.5c0.3-0.6,0.8-1.1,1.5-1.5c0.7-0.4,1.4-0.6,2.1-0.6
								C244.4,169.6,245.4,170,246.2,170.8z"/>
							<path class="st3" d="M250.3,172.2c0.4-0.8,1-1.5,1.7-1.9c0.7-0.4,1.5-0.7,2.4-0.7c0.8,0,1.5,0.2,2.1,0.5
								c0.6,0.3,1.1,0.7,1.4,1.2v-1.5h2.7v10.5h-2.7v-1.5c-0.3,0.5-0.8,0.9-1.4,1.2c-0.6,0.3-1.3,0.5-2.1,0.5
								c-0.9,0-1.7-0.2-2.4-0.7c-0.7-0.5-1.3-1.1-1.7-1.9c-0.4-0.8-0.6-1.8-0.6-2.9C249.6,173.9,249.9,173,250.3,172.2z
								 M257.5,173.4c-0.3-0.5-0.6-0.8-1-1.1c-0.4-0.2-0.9-0.4-1.4-0.4s-0.9,0.1-1.4,0.4c-0.4,0.2-0.8,0.6-1,1.1
								c-0.3,0.5-0.4,1-0.4,1.6c0,0.6,0.1,1.2,0.4,1.7c0.3,0.5,0.6,0.8,1,1.1c0.4,0.3,0.9,0.4,1.4,0.4c0.5,0,1-0.1,1.4-0.4
								c0.4-0.2,0.8-0.6,1-1.1c0.3-0.5,0.4-1,0.4-1.7C257.9,174.4,257.8,173.8,257.5,173.4z"/>
							<path class="st3" d="M266.7,171.9v5.1c0,0.4,0.1,0.6,0.3,0.8c0.2,0.2,0.5,0.2,0.9,0.2h1.2v2.2h-1.7c-2.2,0-3.4-1.1-3.4-3.3
								v-5.1h-1.3v-2.2h1.3v-2.6h2.7v2.6h2.4v2.2H266.7z"/>
							<path class="st3" d="M281,175.8h-7.7c0.1,0.8,0.3,1.4,0.8,1.8c0.5,0.4,1,0.6,1.7,0.6c1,0,1.7-0.4,2.1-1.3h2.9
								c-0.3,1-0.9,1.8-1.7,2.5c-0.9,0.7-1.9,1-3.2,1c-1,0-1.9-0.2-2.7-0.7c-0.8-0.4-1.4-1.1-1.9-1.9c-0.4-0.8-0.7-1.8-0.7-2.8
								c0-1.1,0.2-2,0.7-2.9c0.4-0.8,1.1-1.5,1.9-1.9c0.8-0.4,1.7-0.7,2.8-0.7c1,0,1.9,0.2,2.7,0.6c0.8,0.4,1.4,1,1.8,1.8
								c0.4,0.8,0.7,1.7,0.7,2.7C281.1,175.2,281,175.5,281,175.8z M278.3,174c0-0.7-0.3-1.2-0.7-1.6c-0.5-0.4-1.1-0.6-1.8-0.6
								c-0.7,0-1.2,0.2-1.7,0.6c-0.4,0.4-0.7,1-0.8,1.7H278.3z"/>
						</g>
					</g>
					<g>
						<path class="st3" d="M148.5,163.5c-0.6-0.6-1.7-0.6-2.3,0c-0.6,0.6-0.6,1.7,0,2.3l15.6,15.6c0.3,0.3,0.7,0.5,1.2,0.5
							c0.4,0,0.9-0.2,1.2-0.5c0.6-0.6,0.6-1.7,0-2.3L148.5,163.5z"/>
						<path class="st3" d="M165.1,170.8l-8.4-8.4c-0.6-0.6-1.7-0.6-2.3,0c-0.6,0.6-0.6,1.7,0,2.3l8.4,8.4c0.3,0.3,0.7,0.5,1.2,0.5
							c0.4,0,0.9-0.2,1.2-0.5C165.7,172.5,165.7,171.5,165.1,170.8z"/>
						<path class="st3" d="M147.5,171.7c-0.6-0.6-1.7-0.6-2.3,0c-0.6,0.6-0.6,1.7,0,2.3l8.4,8.4c0.3,0.3,0.7,0.5,1.2,0.5
							c0.4,0,0.9-0.2,1.2-0.5c0.6-0.6,0.6-1.7,0-2.3L147.5,171.7z"/>
					</g>
				</g>
			</g>
		</g>
		<path class="st3" d="M312.9,497.1H169.1c-13.6,0-24.6-11-24.6-24.6v-4.3c0-13.6,11-24.6,24.6-24.6h143.8c13.6,0,24.6,11,24.6,24.6
			v4.3C337.4,486.1,326.4,497.1,312.9,497.1z"/>
		<text transform="matrix(1 0 0 1 204.5116 478.3309)" class="st4 st5 st6">Onboarding</text>
		<path class="st4" d="M180.7,455.1c-8.5,0-15.3,6.9-15.3,15.3c0,8.5,6.9,15.3,15.3,15.3c8.5,0,15.3-6.9,15.3-15.3
			C196.1,462,189.2,455.1,180.7,455.1z M185.2,472.1l-6,3.7c-0.9,0.6-2.2-0.1-2.2-1.2v-7.4c0-1.1,1.2-1.8,2.2-1.2l6,3.7
			C186.1,470.3,186.1,471.6,185.2,472.1z"/>
	</g>
	<path class="st7" d="M349.3,244.3h-196c-4.7,0-8.5-3.8-8.5-8.5v0c0-4.7,3.8-8.5,8.5-8.5h196c4.7,0,8.5,3.8,8.5,8.5v0
		C357.8,240.5,353.9,244.3,349.3,244.3z"/>
	<path class="st7" d="M349.3,282.3h-196c-4.7,0-8.5-3.8-8.5-8.5l0,0c0-4.7,3.8-8.5,8.5-8.5h196c4.7,0,8.5,3.8,8.5,8.5l0,0
		C357.8,278.5,353.9,282.3,349.3,282.3z"/>
	<path class="st7" d="M349.3,320.3h-196c-4.7,0-8.5-3.8-8.5-8.5l0,0c0-4.7,3.8-8.5,8.5-8.5h196c4.7,0,8.5,3.8,8.5,8.5l0,0
		C357.8,316.5,353.9,320.3,349.3,320.3z"/>
	<path class="st7" d="M349.3,358.3h-196c-4.7,0-8.5-3.8-8.5-8.5l0,0c0-4.7,3.8-8.5,8.5-8.5h196c4.7,0,8.5,3.8,8.5,8.5l0,0
		C357.8,354.5,353.9,358.3,349.3,358.3z"/>
	<path class="st7" d="M349.3,396.3h-196c-4.7,0-8.5-3.8-8.5-8.5l0,0c0-4.7,3.8-8.5,8.5-8.5h196c4.7,0,8.5,3.8,8.5,8.5l0,0
		C357.8,392.5,353.9,396.3,349.3,396.3z"/>
</g>
</svg>
